# xmcd
#
# Track frame offsets: 
#        150
#        20880
#        44227
#        59265
#        83625
#        102455
#        121580
#        146697
#        169132
#        183665
#        211570
#        257800
#        270255
#        287997
#        302312
#        329062
#
# Disc length: 4698 seconds
#
# Revision: 4
# Processed by: cddbd v1.5.2PL0 Copyright (c) Steve Scherf et al.
# Submitted via: ExactAudioCopy v1.0b3
#
DISCID=ec125810
DTITLE=B.B. King - Very Best of B.B. King
DYEAR=1994
DGENRE=Blues
TTITLE0=Hummingbird
TTITLE1=How Blue Can You Get
TTITLE2=Caldonia
TTITLE3=The Thrill Is Gone
TTITLE4=Into The Night
TTITLE5=I'm Moving On
TTITLE6=So Excited
TTITLE7=Midnight Believer
TTITLE8=Gambler's Blues
TTITLE9=Sweet Sixteen
TTITLE10=Lucille
TTITLE11=Broken Heart
TTITLE12=Everyday (I Have The Blues)
TTITLE13=Ain't Nobody Home
TTITLE14=Philadelphia
TTITLE15=The Blues Come Over Me
EXTD=
EXTT0=
EXTT1=
EXTT2=
EXTT3=
EXTT4=
EXTT5=
EXTT6=
EXTT7=
EXTT8=
EXTT9=
EXTT10=
EXTT11=
EXTT12=
EXTT13=
EXTT14=
EXTT15=
PLAYORDER=
